<svg xmlns="http://www.w3.org/2000/svg" viewBox="0 0 64 64" id="burger"><path fill="none" stroke="#000" stroke-linejoin="round" stroke-width="2" d="M27.5 5h9A18.5 18.5 0 0 1 55 23.5a4.5 4.5 0 0 1-4.5 4.5h-37A4.5 4.5 0 0 1 9 23.5 18.5 18.5 0 0 1 27.5 5z"></path><rect width="46" height="10" x="9" y="49" fill="none" stroke="#000" stroke-linejoin="round" stroke-width="2" rx="4.5" ry="4.5"></rect><path fill="none" stroke="#000" stroke-linejoin="round" stroke-width="2" d="M42 35h12a3 3 0 0 1 3 3v1a3 3 0 0 1-3 3H10a3 3 0 0 1-3-3v-1a3 3 0 0 1 3-3h22M32.5 35H13v-7h38v7h-9.83M13 42h38v7H13z"></path><path fill="none" stroke="#000" stroke-linejoin="round" stroke-width="2" d="m24 28 13 11 12-11"></path></svg>